<svg id="Flat" height="512" viewBox="0 0 512 512" width="512" xmlns="http://www.w3.org/2000/svg"><path d="m456 88c-128 0-128.012 176-208 176h.988c-80 0-97-112-177-112l.012 288h384z" fill="#2978b8"/><path d="m456 280v160h-384v-160h48c64 0 64-224 128-224s63.99 224 127.99 224z" fill="#8f9e46"/><path d="m488 448a8 8 0 0 0 -8 8v8h-432v-432h8a8 8 0 0 0 0-16h-32a8 8 0 0 0 0 16h8v440a8 8 0 0 0 8 8h440v8a8 8 0 0 0 16 0v-32a8 8 0 0 0 -8-8z" fill="#6a7073"/><path d="m72 216h32v224h-32z" fill="#3397e8"/><path d="m104 328h32v112h-32z" fill="#b1bd70"/><path d="m136 392h32v48h-32z" fill="#3397e8"/><path d="m200 360h32v80h-32z" fill="#3397e8"/><path d="m232 120h32v320h-32z" fill="#b1bd70"/><path d="m264 280h32v160h-32z" fill="#3397e8"/><path d="m360 392h32v48h-32z" fill="#b1bd70"/><path d="m392 184h32v256h-32z" fill="#3397e8"/><g fill="#b1bd70"><path d="m424 152h32v288h-32z"/><path d="m168 288h32v152h-32z"/><path d="m296 312h32v128h-32z"/></g><path d="m328 336h32v104h-32z" fill="#3397e8"/></svg>