<svg height="480pt" viewBox="0 0 480 480" width="480pt" xmlns="http://www.w3.org/2000/svg"><path d="m248 48c0-22.089844-53.726562-40-120-40s-120 17.910156-120 40 53.726562 40 120 40 120-17.910156 120-40zm0 0" fill="#78b9eb"/><path d="m424 376h-28.121094l2.914063-2.910156c15.984375-15.933594 18.691406-40.863282 6.492187-59.851563-12.199218-18.992187-35.996094-26.898437-57.132812-18.980469-20.746094-34.152343-63.601563-47.617187-100.152344-31.472656-14.96875 6.570313-27.582031 17.550782-36.152344 31.472656-21.136718-7.917968-44.933594-.011718-57.132812 18.980469-12.199219 18.988281-9.492188 43.917969 6.492187 59.851563l2.914063 2.910156h-28.121094c-26.507812 0-48 21.492188-48 48s21.492188 48 48 48h288c26.507812 0 48-21.492188 48-48s-21.492188-48-48-48zm-184-16v-8h-56v40h56v40h-56 56v-40h-56v-40h56zm72 72h-48v-80h56v80h-8l16 16zm88 0h-56v-80 80zm0 0" fill="#78b9eb"/><path d="m320 352h-56v80h48l-16-16 16 16h8zm0 0" fill="#78b9eb"/><g fill="#1a6fb0"><path d="m352 344h-8c-4.417969 0-8 3.582031-8 8v80c0 4.417969 3.582031 8 8 8h56c4.417969 0 8-3.582031 8-8v-8h-56zm0 0"/><path d="m328 432v-80c0-4.417969-3.582031-8-8-8h-56c-4.417969 0-8 3.582031-8 8v80c0 4.417969 3.582031 8 8 8h44.6875l13.65625 13.65625 11.3125-11.3125-6.664062-6.664062c.636718-1.125.980468-2.386719 1.007812-3.679688zm-56-8v-64h40v60.6875l-10.34375-10.34375-11.3125 11.3125 2.34375 2.34375zm0 0"/><path d="m240 344h-56c-4.417969 0-8 3.582031-8 8v48h56v24h-56v8c0 4.417969 3.582031 8 8 8h56c4.417969 0 8-3.582031 8-8v-48h-56v-24h56v-8c0-4.417969-3.582031-8-8-8zm0 0"/><path d="m424 368h-11.121094c11.699219-19.367188 10.5625-43.878906-2.875-62.085938-13.441406-18.203124-36.527344-26.507812-58.484375-21.035156-16.414062-23.199218-43.097656-36.957031-71.519531-36.878906-8.121094.042969-16.195312 1.203125-24 3.441406v-203.441406c0-31.519531-64.398438-48-128-48s-128 16.480469-128 48v240c0 31.519531 64.398438 48 128 48 3.761719 0 7.519531-.078125 11.441406-.238281-.746094 11.273437 1.929688 22.511719 7.679688 32.238281h-11.121094c-30.929688 0-56 25.070312-56 56s25.070312 56 56 56h288c30.929688 0 56-25.070312 56-56s-25.070312-56-56-56zm-296-352c68.398438 0 112 18.960938 112 32s-43.601562 32-112 32-112-18.960938-112-32 43.601562-32 112-32zm-112 56.480469c23.039062 15.519531 67.679688 23.519531 112 23.519531s88.960938-8 112-23.519531v55.519531c0 13.039062-43.601562 32-112 32s-112-18.960938-112-32zm0 80c23.039062 15.519531 67.679688 23.519531 112 23.519531s88.960938-8 112-23.519531v55.519531c0 13.039062-43.601562 32-112 32s-112-18.960938-112-32zm126.878906 167.121093c-5.117187.238282-10.078125.398438-14.878906.398438-68.398438 0-112-18.960938-112-32v-55.519531c23.039062 15.519531 67.679688 23.519531 112 23.519531s88.960938-8 112-23.519531v25.121093c-12.539062 6.4375-23.347656 15.792969-31.519531 27.277344-27.554688-7.109375-55.984375 7.941406-65.601563 34.722656zm281.121094 144.398438h-288c-22.089844 0-40-17.910156-40-40s17.910156-40 40-40h28.078125c3.253906.019531 6.191406-1.929688 7.4375-4.933594 1.246094-3 .550781-6.457031-1.753906-8.746094l-2.882813-2.878906c-13.308594-13.273437-15.5625-34.027344-5.410156-49.84375 10.15625-15.816406 29.964844-22.414062 47.570312-15.835937 3.574219 1.332031 7.59375-.039063 9.601563-3.28125 13.035156-21.410157 36.292969-34.476563 61.359375-34.476563s48.324219 13.066406 61.359375 34.476563c2.007813 3.242187 6.027344 4.613281 9.601563 3.28125 17.605468-6.578125 37.414062.019531 47.570312 15.835937 10.152344 15.816406 7.898438 36.570313-5.410156 49.84375l-2.882813 2.878906c-2.304687 2.289063-3 5.746094-1.753906 8.746094 1.246094 3.003906 4.183594 4.953125 7.4375 4.933594h28.078125c22.089844 0 40 17.910156 40 40s-17.910156 40-40 40zm0 0"/></g></svg>